<svg width="512" height="512" viewBox="0 0 512 512" fill="none" xmlns="http://www.w3.org/2000/svg">
<circle cx="140" cy="140" r="116.5" stroke="black" stroke-width="35"/>
<path d="M290.5 73.9999C410.07 73.9999 507 170.93 507 290.5C507 410.07 410.07 507 290.5 507C170.93 507 74 410.07 74 290.5C74 279.449 74.8275 268.592 76.4248 257.986C86.8838 263.634 98.1791 267.93 110.077 270.643C109.368 277.165 109 283.79 109 290.5C109 390.74 190.26 472 290.5 472C390.74 472 472 390.74 472 290.5C472 190.26 390.74 109 290.5 109C283.79 109 277.165 109.367 270.644 110.077C267.93 98.1793 263.634 86.8844 257.986 76.4257C268.592 74.8284 279.449 73.9999 290.5 73.9999Z" fill="black"/>
<mask id="mask0_1_32" style="mask-type:alpha" maskUnits="userSpaceOnUse" x="72" y="73" width="434" height="434">
<circle cx="289.132" cy="290.347" r="199" fill="black" stroke="black" stroke-width="35"/>
</mask>
<g mask="url(#mask0_1_32)">
<rect x="539.12" y="186.731" width="156.648" height="472.901" transform="rotate(45 539.12 186.731)" fill="black"/>
</g>
</svg>
