<svg width="512" height="512" viewBox="0 0 512 512" fill="none" xmlns="http://www.w3.org/2000/svg">
<rect width="512" height="512" fill="url(#paint0_linear_101_3)"/>
<mask id="path-1-outside-1_101_3" maskUnits="userSpaceOnUse" x="91.9997" y="91.9997" width="329" height="329" fill="black">
<rect fill="white" x="91.9997" y="91.9997" width="329" height="329"/>
<path d="M226.222 119.413C233.796 88.1953 278.204 88.1953 285.778 119.413C286.914 124.103 289.142 128.459 292.28 132.125C295.418 135.791 299.377 138.664 303.835 140.51C308.293 142.357 313.123 143.126 317.934 142.753C322.745 142.38 327.4 140.876 331.52 138.364C358.951 121.653 390.365 153.049 373.654 180.498C371.146 184.616 369.644 189.268 369.272 194.076C368.9 198.884 369.668 203.711 371.512 208.167C373.357 212.622 376.227 216.579 379.889 219.716C383.551 222.854 387.902 225.083 392.588 226.222C423.805 233.796 423.805 278.205 392.588 285.778C387.898 286.914 383.543 289.142 379.877 292.28C376.21 295.418 373.337 299.377 371.49 303.835C369.643 308.293 368.875 313.123 369.248 317.934C369.621 322.745 371.124 327.4 373.636 331.52C390.348 358.951 358.952 390.365 331.503 373.654C327.384 371.146 322.732 369.644 317.924 369.272C313.117 368.9 308.289 369.668 303.834 371.512C299.378 373.357 295.421 376.227 292.284 379.889C289.147 383.551 286.917 387.902 285.778 392.588C278.205 423.805 233.796 423.805 226.222 392.588C225.086 387.898 222.858 383.543 219.72 379.877C216.583 376.211 212.625 373.337 208.167 371.49C203.709 369.643 198.877 368.875 194.066 369.248C189.255 369.621 184.6 371.124 180.48 373.636C153.049 390.348 121.635 358.952 138.346 331.503C140.855 327.384 142.356 322.732 142.728 317.924C143.1 313.117 142.333 308.289 140.488 303.834C138.643 299.378 135.773 295.421 132.111 292.284C128.449 289.147 124.098 286.917 119.413 285.778C88.1953 278.204 88.1953 233.796 119.413 226.222C124.103 225.086 128.459 222.858 132.125 219.72C135.79 216.583 138.664 212.624 140.51 208.167C142.357 203.709 143.126 198.877 142.753 194.066C142.38 189.255 140.876 184.6 138.364 180.48C121.653 153.049 153.049 121.635 180.498 138.346C198.276 149.155 221.316 139.591 226.222 119.413ZM256 202.667C241.855 202.667 228.29 208.286 218.288 218.288C208.286 228.29 202.667 241.855 202.667 256C202.667 270.145 208.286 283.711 218.288 293.713C228.29 303.714 241.855 309.334 256 309.334C270.145 309.334 283.711 303.715 293.713 293.713C303.715 283.711 309.334 270.145 309.334 256C309.334 241.855 303.714 228.29 293.713 218.288C283.711 208.286 270.145 202.667 256 202.667Z"/>
</mask>
<g filter="url(#filter0_i_101_3)">
<path d="M226.222 119.413C233.796 88.1953 278.204 88.1953 285.778 119.413C286.914 124.103 289.142 128.459 292.28 132.125C295.418 135.791 299.377 138.664 303.835 140.51C308.293 142.357 313.123 143.126 317.934 142.753C322.745 142.38 327.4 140.876 331.52 138.364C358.951 121.653 390.365 153.049 373.654 180.498C371.146 184.616 369.644 189.268 369.272 194.076C368.9 198.884 369.668 203.711 371.512 208.167C373.357 212.622 376.227 216.579 379.889 219.716C383.551 222.854 387.902 225.083 392.588 226.222C423.805 233.796 423.805 278.205 392.588 285.778C387.898 286.914 383.543 289.142 379.877 292.28C376.21 295.418 373.337 299.377 371.49 303.835C369.643 308.293 368.875 313.123 369.248 317.934C369.621 322.745 371.124 327.4 373.636 331.52C390.348 358.951 358.952 390.365 331.503 373.654C327.384 371.146 322.732 369.644 317.924 369.272C313.117 368.9 308.289 369.668 303.834 371.512C299.378 373.357 295.421 376.227 292.284 379.889C289.147 383.551 286.917 387.902 285.778 392.588C278.205 423.805 233.796 423.805 226.222 392.588C225.086 387.898 222.858 383.543 219.72 379.877C216.583 376.211 212.625 373.337 208.167 371.49C203.709 369.643 198.877 368.875 194.066 369.248C189.255 369.621 184.6 371.124 180.48 373.636C153.049 390.348 121.635 358.952 138.346 331.503C140.855 327.384 142.356 322.732 142.728 317.924C143.1 313.117 142.333 308.289 140.488 303.834C138.643 299.378 135.773 295.421 132.111 292.284C128.449 289.147 124.098 286.917 119.413 285.778C88.1953 278.204 88.1953 233.796 119.413 226.222C124.103 225.086 128.459 222.858 132.125 219.72C135.79 216.583 138.664 212.624 140.51 208.167C142.357 203.709 143.126 198.877 142.753 194.066C142.38 189.255 140.876 184.6 138.364 180.48C121.653 153.049 153.049 121.635 180.498 138.346C198.276 149.155 221.316 139.591 226.222 119.413ZM256 202.667C241.855 202.667 228.29 208.286 218.288 218.288C208.286 228.29 202.667 241.855 202.667 256C202.667 270.145 208.286 283.711 218.288 293.713C228.29 303.714 241.855 309.334 256 309.334C270.145 309.334 283.711 303.715 293.713 293.713C303.715 283.711 309.334 270.145 309.334 256C309.334 241.855 303.714 228.29 293.713 218.288C283.711 208.286 270.145 202.667 256 202.667Z" fill="url(#paint1_linear_101_3)"/>
</g>
<path d="M226.222 119.413L230.109 120.358L230.11 120.356L226.222 119.413ZM285.778 119.413L289.666 118.471L289.665 118.47L285.778 119.413ZM292.28 132.125L289.241 134.726L289.241 134.726L292.28 132.125ZM303.835 140.51L302.304 144.206L302.304 144.206L303.835 140.51ZM317.934 142.753L318.243 146.741L318.243 146.741L317.934 142.753ZM331.52 138.364L329.439 134.948L329.438 134.949L331.52 138.364ZM373.654 180.498L377.07 182.579L377.071 182.578L373.654 180.498ZM369.272 194.076L373.26 194.385V194.385L369.272 194.076ZM371.512 208.167L375.208 206.636V206.636L371.512 208.167ZM379.889 219.716L377.287 222.754V222.754L379.889 219.716ZM392.588 226.222L391.642 230.109L391.645 230.11L392.588 226.222ZM392.588 285.778L393.529 289.666L393.531 289.665L392.588 285.778ZM379.877 292.28L382.477 295.319V295.319L379.877 292.28ZM371.49 303.835L367.795 302.304V302.304L371.49 303.835ZM369.248 317.934L365.26 318.243V318.243L369.248 317.934ZM373.636 331.52L377.052 329.439L377.052 329.438L373.636 331.52ZM331.503 373.654L329.422 377.07L329.423 377.071L331.503 373.654ZM317.924 369.272L317.616 373.26H317.616L317.924 369.272ZM303.834 371.512L305.364 375.208H305.364L303.834 371.512ZM292.284 379.889L289.246 377.287H289.246L292.284 379.889ZM285.778 392.588L281.891 391.642L281.891 391.645L285.778 392.588ZM226.222 392.588L222.335 393.529L222.335 393.531L226.222 392.588ZM219.72 379.877L216.681 382.477H216.681L219.72 379.877ZM208.167 371.49L209.698 367.795L209.698 367.795L208.167 371.49ZM194.066 369.248L193.757 365.26V365.26L194.066 369.248ZM180.48 373.636L182.561 377.052L182.562 377.052L180.48 373.636ZM138.346 331.503L134.93 329.422L134.93 329.423L138.346 331.503ZM142.728 317.924L146.716 318.233V318.233L142.728 317.924ZM140.488 303.834L144.184 302.303H144.184L140.488 303.834ZM132.111 292.284L134.713 289.246L134.713 289.246L132.111 292.284ZM119.413 285.778L120.358 281.891L120.356 281.891L119.413 285.778ZM119.413 226.222L118.471 222.335L118.47 222.335L119.413 226.222ZM132.125 219.72L134.726 222.759L134.726 222.759L132.125 219.72ZM140.51 208.167L144.206 209.698L144.206 209.698L140.51 208.167ZM142.753 194.066L146.741 193.757V193.757L142.753 194.066ZM138.364 180.48L134.948 182.561L134.949 182.562L138.364 180.48ZM180.498 138.346L178.418 141.763L178.42 141.764L180.498 138.346ZM256 202.667V198.667H256L256 202.667ZM218.288 218.288L221.116 221.116V221.116L218.288 218.288ZM202.667 256L198.667 256V256H202.667ZM218.288 293.713L215.459 296.541L215.459 296.541L218.288 293.713ZM256 309.334L256 313.334H256V309.334ZM309.334 256H313.334V256L309.334 256ZM293.713 218.288L296.541 215.459L296.541 215.459L293.713 218.288ZM226.222 119.413L230.11 120.356C236.694 93.2143 275.306 93.2143 281.891 120.356L285.778 119.413L289.665 118.47C281.103 83.1763 230.897 83.1763 222.335 118.47L226.222 119.413ZM285.778 119.413L281.89 120.355C283.175 125.657 285.694 130.581 289.241 134.726L292.28 132.125L295.319 129.524C292.591 126.336 290.654 122.549 289.666 118.471L285.778 119.413ZM292.28 132.125L289.241 134.726C292.788 138.87 297.264 142.118 302.304 144.206L303.835 140.51L305.366 136.815C301.489 135.209 298.047 132.711 295.319 129.524L292.28 132.125ZM303.835 140.51L302.304 144.206C307.343 146.294 312.805 147.162 318.243 146.741L317.934 142.753L317.625 138.765C313.442 139.089 309.242 138.421 305.366 136.815L303.835 140.51ZM317.934 142.753L318.243 146.741C323.682 146.319 328.945 144.619 333.602 141.779L331.52 138.364L329.438 134.949C325.856 137.133 321.808 138.44 317.625 138.765L317.934 142.753ZM331.52 138.364L333.601 141.78C357.452 127.25 384.769 154.549 370.237 178.418L373.654 180.498L377.071 182.578C395.962 151.548 360.451 116.055 329.439 134.948L331.52 138.364ZM373.654 180.498L370.238 178.417C367.402 183.073 365.705 188.332 365.284 193.767L369.272 194.076L373.26 194.385C373.584 190.204 374.889 186.159 377.07 182.579L373.654 180.498ZM369.272 194.076L365.284 193.767C364.863 199.202 365.731 204.66 367.817 209.697L371.512 208.167L375.208 206.636C373.604 202.763 372.937 198.565 373.26 194.385L369.272 194.076ZM371.512 208.167L367.817 209.697C369.902 214.734 373.147 219.207 377.287 222.754L379.889 219.716L382.492 216.679C379.308 213.951 376.812 210.51 375.208 206.636L371.512 208.167ZM379.889 219.716L377.287 222.754C381.427 226.301 386.345 228.821 391.642 230.109L392.588 226.222L393.533 222.336C389.459 221.345 385.676 219.407 382.492 216.679L379.889 219.716ZM392.588 226.222L391.645 230.11C418.786 236.694 418.786 275.306 391.645 281.891L392.588 285.778L393.531 289.665C428.824 281.103 428.824 230.897 393.531 222.335L392.588 226.222ZM392.588 285.778L391.646 281.89C386.344 283.175 381.42 285.694 377.276 289.241L379.877 292.28L382.477 295.319C385.665 292.591 389.452 290.653 393.529 289.666L392.588 285.778ZM379.877 292.28L377.276 289.241C373.131 292.788 369.883 297.264 367.795 302.304L371.49 303.835L375.185 305.366C376.791 301.489 379.29 298.047 382.477 295.319L379.877 292.28ZM371.49 303.835L367.795 302.304C365.707 307.343 364.838 312.805 365.26 318.243L369.248 317.934L373.236 317.625C372.911 313.442 373.579 309.242 375.185 305.366L371.49 303.835ZM369.248 317.934L365.26 318.243C365.681 323.682 367.381 328.945 370.221 333.602L373.636 331.52L377.052 329.438C374.868 325.856 373.56 321.808 373.236 317.625L369.248 317.934ZM373.636 331.52L370.22 333.601C384.75 357.452 357.451 384.769 333.583 370.237L331.503 373.654L329.423 377.071C360.452 395.962 395.945 360.451 377.052 329.439L373.636 331.52ZM331.503 373.654L333.583 370.238C328.928 367.402 323.668 365.705 318.233 365.284L317.924 369.272L317.616 373.26C321.796 373.584 325.841 374.889 329.422 377.07L331.503 373.654ZM317.924 369.272L318.233 365.284C312.798 364.863 307.34 365.731 302.303 367.817L303.834 371.512L305.364 375.208C309.238 373.604 313.435 372.937 317.616 373.26L317.924 369.272ZM303.834 371.512L302.303 367.817C297.267 369.902 292.793 373.147 289.246 377.287L292.284 379.889L295.322 382.492C298.049 379.308 301.49 376.812 305.364 375.208L303.834 371.512ZM292.284 379.889L289.246 377.287C285.7 381.427 283.179 386.345 281.891 391.642L285.778 392.588L289.665 393.533C290.655 389.459 292.594 385.676 295.322 382.492L292.284 379.889ZM285.778 392.588L281.891 391.645C275.306 418.786 236.694 418.786 230.11 391.645L226.222 392.588L222.335 393.531C230.897 428.824 281.103 428.824 289.665 393.531L285.778 392.588ZM226.222 392.588L230.11 391.646C228.825 386.344 226.306 381.42 222.759 377.276L219.72 379.877L216.681 382.477C219.41 385.665 221.347 389.452 222.335 393.529L226.222 392.588ZM219.72 379.877L222.759 377.276C219.213 373.131 214.738 369.883 209.698 367.795L208.167 371.49L206.636 375.185C210.511 376.791 213.953 379.29 216.681 382.477L219.72 379.877ZM208.167 371.49L209.698 367.795C204.658 365.706 199.196 364.838 193.757 365.26L194.066 369.248L194.375 373.236C198.558 372.911 202.759 373.579 206.636 375.185L208.167 371.49ZM194.066 369.248L193.757 365.26C188.318 365.681 183.056 367.381 178.398 370.221L180.48 373.636L182.562 377.052C186.145 374.867 190.192 373.56 194.375 373.236L194.066 369.248ZM180.48 373.636L178.399 370.22C154.549 384.75 127.232 357.451 141.763 333.583L138.346 331.503L134.93 329.423C116.039 360.452 151.549 395.945 182.561 377.052L180.48 373.636ZM138.346 331.503L141.763 333.583C144.598 328.928 146.296 323.668 146.716 318.233L142.728 317.924L138.74 317.616C138.417 321.796 137.111 325.841 134.93 329.422L138.346 331.503ZM142.728 317.924L146.716 318.233C147.137 312.798 146.269 307.34 144.184 302.303L140.488 303.834L136.792 305.364C138.396 309.238 139.064 313.435 138.74 317.616L142.728 317.924ZM140.488 303.834L144.184 302.303C142.098 297.267 138.853 292.793 134.713 289.246L132.111 292.284L129.509 295.322C132.693 298.049 135.188 301.49 136.792 305.364L140.488 303.834ZM132.111 292.284L134.713 289.246C130.574 285.7 125.655 283.179 120.358 281.891L119.413 285.778L118.468 289.665C122.542 290.655 126.324 292.594 129.509 295.322L132.111 292.284ZM119.413 285.778L120.356 281.891C93.2143 275.306 93.2143 236.694 120.356 230.11L119.413 226.222L118.47 222.335C83.1763 230.897 83.1763 281.103 118.47 289.665L119.413 285.778ZM119.413 226.222L120.355 230.11C125.657 228.825 130.581 226.306 134.726 222.759L132.125 219.72L129.524 216.681C126.336 219.41 122.549 221.347 118.471 222.335L119.413 226.222ZM132.125 219.72L134.726 222.759C138.87 219.212 142.118 214.737 144.206 209.698L140.51 208.167L136.815 206.636C135.209 210.512 132.711 213.954 129.524 216.681L132.125 219.72ZM140.51 208.167L144.206 209.698C146.294 204.658 147.162 199.196 146.741 193.757L142.753 194.066L138.765 194.375C139.089 198.558 138.421 202.759 136.815 206.636L140.51 208.167ZM142.753 194.066L146.741 193.757C146.319 188.318 144.619 183.056 141.779 178.398L138.364 180.48L134.949 182.562C137.133 186.145 138.44 190.192 138.765 194.375L142.753 194.066ZM138.364 180.48L141.78 178.399C127.25 154.549 154.549 127.232 178.418 141.763L180.498 138.346L182.578 134.93C151.548 116.039 116.055 151.549 134.948 182.561L138.364 180.48ZM180.498 138.346L178.42 141.764C198.509 153.979 224.563 143.167 230.109 120.358L226.222 119.413L222.336 118.468C218.069 136.015 198.042 144.332 182.576 134.929L180.498 138.346ZM256 202.667L256 198.667C240.794 198.667 226.211 204.707 215.459 215.459L218.288 218.288L221.116 221.116C230.368 211.864 242.916 206.667 256 206.667L256 202.667ZM218.288 218.288L215.459 215.459C204.707 226.211 198.667 240.794 198.667 256L202.667 256L206.667 256C206.667 242.916 211.864 230.368 221.116 221.116L218.288 218.288ZM202.667 256H198.667C198.667 271.205 204.707 285.789 215.459 296.541L218.288 293.713L221.116 290.884C211.864 281.632 206.667 269.084 206.667 256H202.667ZM218.288 293.713L215.459 296.541C226.211 307.293 240.794 313.334 256 313.334L256 309.334L256 305.334C242.916 305.334 230.368 300.136 221.116 290.884L218.288 293.713ZM256 309.334V313.334C271.205 313.334 285.789 307.293 296.541 296.541L293.713 293.713L290.884 290.884C281.632 300.136 269.084 305.334 256 305.334V309.334ZM293.713 293.713L296.541 296.541C307.293 285.789 313.334 271.205 313.334 256H309.334H305.334C305.334 269.084 300.136 281.632 290.884 290.884L293.713 293.713ZM309.334 256L313.334 256C313.334 240.794 307.293 226.211 296.541 215.459L293.713 218.288L290.884 221.116C300.136 230.368 305.334 242.916 305.334 256L309.334 256ZM293.713 218.288L296.541 215.459C285.789 204.707 271.205 198.667 256 198.667V202.667V206.667C269.084 206.667 281.632 211.864 290.884 221.116L293.713 218.288Z" fill="white" mask="url(#path-1-outside-1_101_3)"/>
<defs>
<filter id="filter0_i_101_3" x="91.9997" y="91.9997" width="328.001" height="328.001" filterUnits="userSpaceOnUse" color-interpolation-filters="sRGB">
<feFlood flood-opacity="0" result="BackgroundImageFix"/>
<feBlend mode="normal" in="SourceGraphic" in2="BackgroundImageFix" result="shape"/>
<feColorMatrix in="SourceAlpha" type="matrix" values="0 0 0 0 0 0 0 0 0 0 0 0 0 0 0 0 0 0 127 0" result="hardAlpha"/>
<feOffset/>
<feGaussianBlur stdDeviation="15"/>
<feComposite in2="hardAlpha" operator="arithmetic" k2="-1" k3="1"/>
<feColorMatrix type="matrix" values="0 0 0 0 0.0588235 0 0 0 0 0.0901961 0 0 0 0 0.168627 0 0 0 1 0"/>
<feBlend mode="normal" in2="shape" result="effect1_innerShadow_101_3"/>
</filter>
<linearGradient id="paint0_linear_101_3" x1="256" y1="0" x2="256" y2="512" gradientUnits="userSpaceOnUse">
<stop stop-color="#F8FAFC"/>
<stop offset="1" stop-color="#CAD5E2"/>
</linearGradient>
<linearGradient id="paint1_linear_101_3" x1="256" y1="95.9997" x2="256" y2="416.001" gradientUnits="userSpaceOnUse">
<stop stop-color="#0F172B"/>
<stop offset="1" stop-color="#45556C"/>
</linearGradient>
</defs>
</svg>
