<svg width="512" height="512" viewBox="0 0 512 512" fill="none" xmlns="http://www.w3.org/2000/svg">
<rect width="512" height="512" fill="url(#paint0_linear_101_3)"/>
<g clip-path="url(#clip0_101_3)">
<g filter="url(#filter0_i_101_3)">
<path d="M226.222 119.413C233.796 88.1953 278.204 88.1953 285.778 119.413C286.914 124.103 289.142 128.459 292.28 132.125C295.418 135.791 299.377 138.664 303.835 140.51C308.293 142.357 313.123 143.126 317.934 142.753C322.745 142.38 327.4 140.876 331.52 138.364C358.951 121.653 390.365 153.049 373.654 180.498C371.146 184.616 369.644 189.268 369.272 194.076C368.9 198.884 369.668 203.711 371.512 208.167C373.357 212.622 376.227 216.579 379.889 219.716C383.551 222.854 387.902 225.083 392.588 226.222C423.805 233.796 423.805 278.205 392.588 285.778C387.898 286.914 383.543 289.142 379.877 292.28C376.21 295.418 373.337 299.377 371.49 303.835C369.643 308.293 368.875 313.123 369.248 317.934C369.621 322.745 371.124 327.4 373.636 331.52C390.348 358.951 358.952 390.365 331.503 373.654C327.384 371.146 322.732 369.644 317.924 369.272C313.117 368.9 308.289 369.668 303.834 371.512C299.378 373.357 295.421 376.227 292.284 379.889C289.147 383.551 286.917 387.902 285.778 392.588C278.205 423.805 233.796 423.805 226.222 392.588C225.086 387.898 222.858 383.543 219.72 379.877C216.583 376.211 212.625 373.337 208.167 371.49C203.709 369.643 198.877 368.875 194.066 369.248C189.255 369.621 184.6 371.124 180.48 373.636C153.049 390.348 121.635 358.952 138.346 331.503C140.855 327.384 142.356 322.732 142.728 317.924C143.1 313.117 142.333 308.289 140.488 303.834C138.643 299.378 135.773 295.421 132.111 292.284C128.449 289.147 124.098 286.917 119.413 285.778C88.1953 278.204 88.1953 233.796 119.413 226.222C124.103 225.086 128.459 222.858 132.125 219.72C135.79 216.583 138.664 212.624 140.51 208.167C142.357 203.709 143.126 198.877 142.753 194.066C142.38 189.255 140.876 184.6 138.364 180.48C121.653 153.049 153.049 121.635 180.498 138.346C198.276 149.155 221.316 139.591 226.222 119.413ZM256 202.667C241.855 202.667 228.29 208.286 218.288 218.288C208.286 228.29 202.667 241.855 202.667 256C202.667 270.145 208.286 283.711 218.288 293.713C228.29 303.714 241.855 309.334 256 309.334C270.145 309.334 283.711 303.715 293.713 293.713C303.715 283.711 309.334 270.145 309.334 256C309.334 241.855 303.714 228.29 293.713 218.288C283.711 208.286 270.145 202.667 256 202.667Z" fill="url(#paint1_linear_101_3)"/>
</g>
</g>
<defs>
<filter id="filter0_i_101_3" x="95.9997" y="95.9997" width="320.001" height="320.001" filterUnits="userSpaceOnUse" color-interpolation-filters="sRGB">
<feFlood flood-opacity="0" result="BackgroundImageFix"/>
<feBlend mode="normal" in="SourceGraphic" in2="BackgroundImageFix" result="shape"/>
<feColorMatrix in="SourceAlpha" type="matrix" values="0 0 0 0 0 0 0 0 0 0 0 0 0 0 0 0 0 0 127 0" result="hardAlpha"/>
<feOffset/>
<feGaussianBlur stdDeviation="15"/>
<feComposite in2="hardAlpha" operator="arithmetic" k2="-1" k3="1"/>
<feColorMatrix type="matrix" values="0 0 0 0 0.0588235 0 0 0 0 0.0901961 0 0 0 0 0.168627 0 0 0 1 0"/>
<feBlend mode="normal" in2="shape" result="effect1_innerShadow_101_3"/>
</filter>
<linearGradient id="paint0_linear_101_3" x1="256" y1="0" x2="256" y2="512" gradientUnits="userSpaceOnUse">
<stop stop-color="#F8FAFC"/>
<stop offset="1" stop-color="#CAD5E2"/>
</linearGradient>
<linearGradient id="paint1_linear_101_3" x1="256" y1="95.9997" x2="256" y2="416.001" gradientUnits="userSpaceOnUse">
<stop stop-color="#0F172B"/>
<stop offset="1" stop-color="#45556C"/>
</linearGradient>
<clipPath id="clip0_101_3">
<rect width="320" height="320" fill="white" transform="translate(96 96)"/>
</clipPath>
</defs>
</svg>
