<svg width="512" height="512" viewBox="0 0 512 512" fill="none" xmlns="http://www.w3.org/2000/svg">
<rect width="512" height="512" fill="url(#paint0_linear_101_10)"/>
<g filter="url(#filter0_d_101_10)">
<mask id="path-1-outside-1_101_10" maskUnits="userSpaceOnUse" x="113.818" y="113.818" width="285" height="285" fill="black">
<rect fill="white" x="113.818" y="113.818" width="285" height="285"/>
<path d="M325.091 117.818C343.415 117.818 360.988 125.097 373.945 138.055C386.902 151.012 394.181 168.585 394.181 186.909V325.091C394.181 343.415 386.902 360.988 373.945 373.945C360.988 386.902 343.415 394.181 325.091 394.181H186.909C168.585 394.181 151.012 386.902 138.055 373.945C125.097 360.988 117.818 343.415 117.818 325.091V186.909C117.818 168.585 125.097 151.012 138.055 138.055C151.012 125.098 168.585 117.818 186.909 117.818H325.091ZM307.818 173.955C300.664 173.955 294.863 179.755 294.863 186.909C294.863 197.216 290.769 207.101 283.48 214.389C276.192 221.678 266.307 225.772 256 225.772C245.693 225.772 235.808 221.678 228.519 214.389C221.231 207.101 217.136 197.216 217.136 186.909C217.135 179.754 211.336 173.955 204.181 173.955C197.027 173.955 191.227 179.755 191.227 186.909C191.227 204.087 198.051 220.563 210.198 232.71C222.345 244.857 238.821 251.681 256 251.681C273.178 251.681 289.653 244.857 301.801 232.71C313.948 220.563 320.772 204.088 320.772 186.909C320.772 179.755 314.973 173.955 307.818 173.955Z"/>
</mask>
<path d="M325.091 117.818C343.415 117.818 360.988 125.097 373.945 138.055C386.902 151.012 394.181 168.585 394.181 186.909V325.091C394.181 343.415 386.902 360.988 373.945 373.945C360.988 386.902 343.415 394.181 325.091 394.181H186.909C168.585 394.181 151.012 386.902 138.055 373.945C125.097 360.988 117.818 343.415 117.818 325.091V186.909C117.818 168.585 125.097 151.012 138.055 138.055C151.012 125.098 168.585 117.818 186.909 117.818H325.091ZM307.818 173.955C300.664 173.955 294.863 179.755 294.863 186.909C294.863 197.216 290.769 207.101 283.48 214.389C276.192 221.678 266.307 225.772 256 225.772C245.693 225.772 235.808 221.678 228.519 214.389C221.231 207.101 217.136 197.216 217.136 186.909C217.135 179.754 211.336 173.955 204.181 173.955C197.027 173.955 191.227 179.755 191.227 186.909C191.227 204.087 198.051 220.563 210.198 232.71C222.345 244.857 238.821 251.681 256 251.681C273.178 251.681 289.653 244.857 301.801 232.71C313.948 220.563 320.772 204.088 320.772 186.909C320.772 179.755 314.973 173.955 307.818 173.955Z" fill="url(#paint1_linear_101_10)" shape-rendering="crispEdges"/>
<path d="M325.091 117.818V113.818V117.818ZM373.945 138.055L376.774 135.226V135.226L373.945 138.055ZM394.181 186.909H398.181V186.909H394.181ZM373.945 373.945L376.774 376.774V376.774L373.945 373.945ZM138.055 373.945L135.226 376.774V376.774L138.055 373.945ZM117.818 325.091H113.818H117.818ZM117.818 186.909H113.818V186.909H117.818ZM138.055 138.055L135.226 135.226L135.226 135.226L138.055 138.055ZM186.909 117.818V113.818V117.818ZM307.818 173.955L307.818 169.955H307.818L307.818 173.955ZM294.863 186.909L290.863 186.909V186.909H294.863ZM283.48 214.389L286.309 217.218L286.309 217.218L283.48 214.389ZM256 225.772L256 229.772H256L256 225.772ZM228.519 214.389L225.691 217.218L225.691 217.218L228.519 214.389ZM217.136 186.909H221.136V186.909L217.136 186.909ZM204.181 173.955V169.955H204.181L204.181 173.955ZM191.227 186.909L187.227 186.909V186.909H191.227ZM210.198 232.71L207.37 235.538L207.37 235.538L210.198 232.71ZM256 251.681L256 255.681H256L256 251.681ZM301.801 232.71L304.629 235.538L304.629 235.538L301.801 232.71ZM320.772 186.909H324.772V186.909L320.772 186.909ZM325.091 117.818V121.818C342.354 121.818 358.91 128.676 371.117 140.883L373.945 138.055L376.774 135.226C363.066 121.519 344.476 113.818 325.091 113.818V117.818ZM373.945 138.055L371.117 140.883C383.324 153.09 390.181 169.646 390.181 186.909H394.181H398.181C398.181 167.524 390.481 148.933 376.774 135.226L373.945 138.055ZM394.181 186.909H390.181V325.091H394.181H398.181V186.909H394.181ZM394.181 325.091H390.181C390.181 342.354 383.324 358.91 371.117 371.117L373.945 373.945L376.774 376.774C390.481 363.066 398.181 344.476 398.181 325.091H394.181ZM373.945 373.945L371.117 371.117C358.91 383.324 342.354 390.181 325.091 390.181V394.181V398.181C344.476 398.181 363.066 390.481 376.774 376.774L373.945 373.945ZM325.091 394.181V390.181H186.909V394.181V398.181H325.091V394.181ZM186.909 394.181V390.181C169.646 390.181 153.09 383.324 140.883 371.117L138.055 373.945L135.226 376.774C148.933 390.481 167.524 398.181 186.909 398.181V394.181ZM138.055 373.945L140.883 371.117C128.676 358.91 121.818 342.354 121.818 325.091H117.818H113.818C113.818 344.476 121.519 363.066 135.226 376.774L138.055 373.945ZM117.818 325.091H121.818V186.909H117.818H113.818V325.091H117.818ZM117.818 186.909H121.818C121.818 169.646 128.676 153.09 140.883 140.883L138.055 138.055L135.226 135.226C121.519 148.933 113.818 167.524 113.818 186.909H117.818ZM138.055 138.055L140.883 140.883C153.09 128.676 169.646 121.818 186.909 121.818V117.818V113.818C167.524 113.818 148.933 121.519 135.226 135.226L138.055 138.055ZM186.909 117.818V121.818H325.091V117.818V113.818H186.909V117.818ZM307.818 173.955L307.818 169.955C298.455 169.955 290.863 177.545 290.863 186.909L294.863 186.909L298.863 186.909C298.863 181.964 302.872 177.955 307.818 177.955L307.818 173.955ZM294.863 186.909H290.863C290.863 196.155 287.19 205.023 280.652 211.561L283.48 214.389L286.309 217.218C294.347 209.179 298.863 198.277 298.863 186.909H294.863ZM283.48 214.389L280.652 211.561C274.114 218.099 265.246 221.772 256 221.772L256 225.772L256 229.772C267.368 229.772 278.27 225.256 286.309 217.218L283.48 214.389ZM256 225.772L256 221.772C246.754 221.772 237.886 218.099 231.348 211.561L228.519 214.389L225.691 217.218C233.729 225.256 244.632 229.772 256 229.772L256 225.772ZM228.519 214.389L231.348 211.561C224.81 205.023 221.136 196.155 221.136 186.909H217.136H213.136C213.136 198.277 217.653 209.18 225.691 217.218L228.519 214.389ZM217.136 186.909L221.136 186.909C221.135 177.545 213.545 169.955 204.181 169.955V173.955V177.955C209.127 177.955 213.136 181.964 213.136 186.909L217.136 186.909ZM204.181 173.955L204.181 169.955C194.818 169.955 187.227 177.545 187.227 186.909L191.227 186.909L195.227 186.909C195.227 181.964 199.236 177.955 204.182 177.955L204.181 173.955ZM191.227 186.909H187.227C187.227 205.148 194.473 222.641 207.37 235.538L210.198 232.71L213.027 229.881C201.63 218.484 195.227 203.027 195.227 186.909H191.227ZM210.198 232.71L207.37 235.538C220.267 248.436 237.76 255.681 256 255.681L256 251.681L256 247.681C239.882 247.681 224.423 241.278 213.026 229.881L210.198 232.71ZM256 251.681L256 255.681C274.239 255.681 291.732 248.435 304.629 235.538L301.801 232.71L298.972 229.881C287.575 241.278 272.118 247.681 256 247.681L256 251.681ZM301.801 232.71L304.629 235.538C317.526 222.641 324.772 205.149 324.772 186.909H320.772H316.772C316.772 203.027 310.369 218.484 298.972 229.881L301.801 232.71ZM320.772 186.909L324.772 186.909C324.772 177.545 317.182 169.955 307.818 169.955L307.818 173.955L307.818 177.955C312.763 177.955 316.772 181.964 316.772 186.909L320.772 186.909Z" fill="black" fill-opacity="0.2" mask="url(#path-1-outside-1_101_10)"/>
</g>
<defs>
<filter id="filter0_d_101_10" x="109.818" y="113.818" width="292.363" height="296.363" filterUnits="userSpaceOnUse" color-interpolation-filters="sRGB">
<feFlood flood-opacity="0" result="BackgroundImageFix"/>
<feColorMatrix in="SourceAlpha" type="matrix" values="0 0 0 0 0 0 0 0 0 0 0 0 0 0 0 0 0 0 127 0" result="hardAlpha"/>
<feOffset dy="8"/>
<feGaussianBlur stdDeviation="2"/>
<feComposite in2="hardAlpha" operator="out"/>
<feColorMatrix type="matrix" values="0 0 0 0 0 0 0 0 0 0 0 0 0 0 0 0 0 0 0.15 0"/>
<feBlend mode="normal" in2="BackgroundImageFix" result="effect1_dropShadow_101_10"/>
<feBlend mode="normal" in="SourceGraphic" in2="effect1_dropShadow_101_10" result="shape"/>
</filter>
<linearGradient id="paint0_linear_101_10" x1="256" y1="0" x2="256" y2="512" gradientUnits="userSpaceOnUse">
<stop stop-color="#A684FF"/>
<stop offset="1" stop-color="#8E51FF"/>
</linearGradient>
<linearGradient id="paint1_linear_101_10" x1="256" y1="117.818" x2="256" y2="394.182" gradientUnits="userSpaceOnUse">
<stop stop-color="#EDE9FE"/>
<stop offset="1" stop-color="#C4B4FF"/>
</linearGradient>
</defs>
</svg>
