<svg width="512" height="512" viewBox="0 0 512 512" fill="none" xmlns="http://www.w3.org/2000/svg">
<rect width="512" height="512" fill="url(#paint0_linear_101_10)"/>
<path d="M325.091 117.818C343.415 117.818 360.988 125.097 373.945 138.055C386.902 151.012 394.181 168.585 394.181 186.909V325.091C394.181 343.415 386.902 360.988 373.945 373.945C360.988 386.902 343.415 394.181 325.091 394.181H186.909C168.585 394.181 151.012 386.902 138.055 373.945C125.097 360.988 117.818 343.415 117.818 325.091V186.909C117.818 168.585 125.097 151.012 138.055 138.055C151.012 125.098 168.585 117.818 186.909 117.818H325.091ZM307.818 173.955C300.664 173.955 294.863 179.755 294.863 186.909C294.863 197.216 290.769 207.101 283.48 214.389C276.192 221.678 266.307 225.772 256 225.772C245.693 225.772 235.808 221.678 228.519 214.389C221.231 207.101 217.136 197.216 217.136 186.909C217.135 179.754 211.336 173.955 204.181 173.955C197.027 173.955 191.227 179.755 191.227 186.909C191.227 204.087 198.051 220.563 210.198 232.71C222.345 244.857 238.821 251.681 256 251.681C273.178 251.681 289.653 244.857 301.801 232.71C313.948 220.563 320.772 204.088 320.772 186.909C320.772 179.755 314.973 173.955 307.818 173.955Z" fill="url(#paint1_linear_101_10)"/>
<defs>
<linearGradient id="paint0_linear_101_10" x1="256" y1="0" x2="256" y2="512" gradientUnits="userSpaceOnUse">
<stop stop-color="#A684FF"/>
<stop offset="1" stop-color="#8E51FF"/>
</linearGradient>
<linearGradient id="paint1_linear_101_10" x1="256" y1="117.818" x2="256" y2="394.182" gradientUnits="userSpaceOnUse">
<stop stop-color="#EDE9FE"/>
<stop offset="1" stop-color="#C4B4FF"/>
</linearGradient>
</defs>
</svg>
